<svg width="19" height="22" viewBox="0 0 19 22" fill="none" xmlns="http://www.w3.org/2000/svg">
<path d="M18.0178 18.9875L16.4885 6.52295C16.4428 6.29795 16.2635 6.11865 16.0385 6.11865H12.7531V4.85829C12.7531 2.24793 11.3135 0.493652 9.15313 0.493652C6.99277 0.493652 5.55313 2.24793 5.55313 4.85829V6.11865H1.99885C1.77385 6.11865 1.59455 6.29795 1.54885 6.52295L0.0195675 18.9875C-0.0700815 19.6168 0.154918 20.2918 0.559207 20.7418C0.963505 21.2375 1.59457 21.5064 2.22385 21.5064H15.7697C16.399 21.5064 17.0301 21.2357 17.4344 20.7418C17.8826 20.2935 18.1076 19.6185 18.018 18.9875H18.0178ZM6.45322 4.90205C6.45322 3.28133 7.17394 1.43741 9.15322 1.43741C11.1325 1.43741 11.8532 3.28313 11.8532 4.90205V6.16241H6.45322V4.90205ZM16.8032 20.1579C16.5325 20.4287 16.1739 20.608 15.8136 20.608H2.22403C1.81973 20.608 1.45939 20.4287 1.23439 20.1579C1.00939 19.8872 0.874037 19.483 0.919739 19.0787L2.40334 7.06232H15.6324L17.1178 19.1228C17.1635 19.4831 17.0282 19.8874 16.8032 20.1581L16.8032 20.1579Z" fill="black"/>
</svg>
