<svg width="77" height="19" viewBox="0 0 77 19" fill="none" xmlns="http://www.w3.org/2000/svg">
<path d="M7.46 18.24C6.604 18.24 5.764 18.132 4.94 17.916C4.116 17.7 3.364 17.376 2.684 16.944C2.004 16.512 1.44 15.972 0.992 15.324C0.552 14.676 0.288 13.916 0.2 13.044H3.788C3.908 13.572 4.136 14.016 4.472 14.376C4.808 14.736 5.232 15.012 5.744 15.204C6.256 15.396 6.824 15.492 7.448 15.492C8.088 15.492 8.672 15.412 9.2 15.252C9.728 15.092 10.152 14.852 10.472 14.532C10.792 14.204 10.952 13.796 10.952 13.308C10.952 12.868 10.82 12.508 10.556 12.228C10.3 11.948 9.952 11.72 9.512 11.544C9.072 11.368 8.572 11.224 8.012 11.112L5.012 10.5C3.7 10.252 2.66 9.732 1.892 8.94C1.124 8.14 0.728 7.076 0.704 5.748C0.696 4.66 0.984 3.72 1.568 2.928C2.16 2.128 2.96 1.512 3.968 1.08C4.984 0.647999 6.12 0.431999 7.376 0.431999C8.872 0.431999 10.128 0.667999 11.144 1.14C12.168 1.604 12.944 2.236 13.472 3.036C14.008 3.828 14.284 4.712 14.3 5.688H10.784C10.72 5.08 10.536 4.596 10.232 4.236C9.928 3.876 9.536 3.616 9.056 3.456C8.584 3.296 8.044 3.216 7.436 3.216C6.972 3.216 6.548 3.268 6.164 3.372C5.788 3.476 5.468 3.624 5.204 3.816C4.94 4 4.736 4.22 4.592 4.476C4.448 4.732 4.376 5.02 4.376 5.34C4.376 5.844 4.544 6.252 4.88 6.564C5.216 6.876 5.844 7.132 6.764 7.332L9.74 7.944C10.804 8.152 11.648 8.46 12.272 8.868C12.904 9.276 13.376 9.736 13.688 10.248C14.008 10.76 14.216 11.284 14.312 11.82C14.416 12.348 14.468 12.836 14.468 13.284C14.468 14.22 14.172 15.064 13.58 15.816C12.996 16.56 12.18 17.152 11.132 17.592C10.084 18.024 8.86 18.24 7.46 18.24ZM24.3491 8.028H21.5891L21.6131 14.64C21.6131 14.944 21.6491 15.172 21.7211 15.324C21.8011 15.468 21.9211 15.564 22.0811 15.612C22.2491 15.652 22.4611 15.672 22.7171 15.672H24.3851V17.832C24.2251 17.904 23.9731 17.972 23.6291 18.036C23.2931 18.1 22.8211 18.132 22.2131 18.132C21.1251 18.132 20.2811 17.992 19.6811 17.712C19.0891 17.432 18.6771 17.04 18.4451 16.536C18.2131 16.032 18.0971 15.448 18.0971 14.784V8.028H16.0811V5.592H18.2171L19.0931 1.848H21.5891V5.58H24.3491V8.028ZM29.4191 12.6C29.4111 13.232 29.5111 13.784 29.7191 14.256C29.9271 14.72 30.2271 15.08 30.6191 15.336C31.0191 15.584 31.4991 15.708 32.0591 15.708C32.6591 15.708 33.1831 15.58 33.6311 15.324C34.0871 15.068 34.4031 14.648 34.5791 14.064H37.7351C37.5991 14.944 37.2471 15.696 36.6791 16.32C36.1191 16.944 35.4391 17.42 34.6391 17.748C33.8391 18.076 33.0071 18.24 32.1431 18.24C30.9191 18.24 29.8391 17.984 28.9031 17.472C27.9751 16.952 27.2511 16.22 26.7311 15.276C26.2111 14.332 25.9511 13.22 25.9511 11.94C25.9511 10.7 26.1871 9.584 26.6591 8.592C27.1311 7.592 27.8151 6.804 28.7111 6.228C29.6151 5.644 30.6991 5.352 31.9631 5.352C33.2271 5.352 34.2871 5.62 35.1431 6.156C36.0071 6.684 36.6551 7.424 37.0871 8.376C37.5271 9.32 37.7471 10.412 37.7471 11.652V12.6H29.4191ZM29.4071 10.512H34.4711C34.4711 10.016 34.3791 9.56 34.1951 9.144C34.0111 8.728 33.7311 8.4 33.3551 8.16C32.9871 7.92 32.5231 7.8 31.9631 7.8C31.4191 7.8 30.9551 7.932 30.5711 8.196C30.1951 8.452 29.9071 8.788 29.7071 9.204C29.5071 9.62 29.4071 10.056 29.4071 10.512ZM43.0597 12.6C43.0517 13.232 43.1517 13.784 43.3597 14.256C43.5677 14.72 43.8677 15.08 44.2597 15.336C44.6597 15.584 45.1397 15.708 45.6997 15.708C46.2997 15.708 46.8237 15.58 47.2717 15.324C47.7277 15.068 48.0437 14.648 48.2197 14.064H51.3757C51.2397 14.944 50.8877 15.696 50.3197 16.32C49.7597 16.944 49.0797 17.42 48.2797 17.748C47.4797 18.076 46.6477 18.24 45.7837 18.24C44.5597 18.24 43.4797 17.984 42.5437 17.472C41.6157 16.952 40.8917 16.22 40.3717 15.276C39.8517 14.332 39.5917 13.22 39.5917 11.94C39.5917 10.7 39.8277 9.584 40.2997 8.592C40.7717 7.592 41.4557 6.804 42.3517 6.228C43.2557 5.644 44.3397 5.352 45.6037 5.352C46.8677 5.352 47.9277 5.62 48.7837 6.156C49.6477 6.684 50.2957 7.424 50.7277 8.376C51.1677 9.32 51.3877 10.412 51.3877 11.652V12.6H43.0597ZM43.0477 10.512H48.1117C48.1117 10.016 48.0197 9.56 47.8357 9.144C47.6517 8.728 47.3717 8.4 46.9957 8.16C46.6277 7.92 46.1637 7.8 45.6037 7.8C45.0597 7.8 44.5957 7.932 44.2117 8.196C43.8357 8.452 43.5477 8.788 43.3477 9.204C43.1477 9.62 43.0477 10.056 43.0477 10.512ZM52.7482 18V16.044L58.8682 8.04H53.0602V5.592H63.1162V7.548L56.9842 15.552H63.1522V18H52.7482ZM68.0441 12.6C68.0361 13.232 68.1361 13.784 68.3441 14.256C68.5521 14.72 68.8521 15.08 69.2441 15.336C69.6441 15.584 70.1241 15.708 70.6841 15.708C71.2841 15.708 71.8081 15.58 72.2561 15.324C72.7121 15.068 73.0281 14.648 73.2041 14.064H76.3601C76.2241 14.944 75.8721 15.696 75.3041 16.32C74.7441 16.944 74.0641 17.42 73.2641 17.748C72.4641 18.076 71.6321 18.24 70.7681 18.24C69.5441 18.24 68.4641 17.984 67.5281 17.472C66.6001 16.952 65.8761 16.22 65.3561 15.276C64.8361 14.332 64.5761 13.22 64.5761 11.94C64.5761 10.7 64.8121 9.584 65.2841 8.592C65.7561 7.592 66.4401 6.804 67.3361 6.228C68.2401 5.644 69.3241 5.352 70.5881 5.352C71.8521 5.352 72.9121 5.62 73.7681 6.156C74.6321 6.684 75.2801 7.424 75.7121 8.376C76.1521 9.32 76.3721 10.412 76.3721 11.652V12.6H68.0441ZM68.0321 10.512H73.0961C73.0961 10.016 73.0041 9.56 72.8201 9.144C72.6361 8.728 72.3561 8.4 71.9801 8.16C71.6121 7.92 71.1481 7.8 70.5881 7.8C70.0441 7.8 69.5801 7.932 69.1961 8.196C68.8201 8.452 68.5321 8.788 68.3321 9.204C68.1321 9.62 68.0321 10.056 68.0321 10.512Z" fill="black"/>
</svg>
